<mxfile host="Electron" agent="Mozilla/5.0 (Windows NT 10.0; Win64; x64) AppleWebKit/537.36 (KHTML, like Gecko) draw.io/26.0.9 Chrome/128.0.6613.186 Electron/32.2.5 Safari/537.36" version="26.0.9">
  <diagram name="第 1 页" id="I9UAZyholPvYavsODyDd">
    <mxGraphModel dx="1434" dy="836" grid="1" gridSize="10" guides="1" tooltips="1" connect="1" arrows="1" fold="1" page="1" pageScale="1" pageWidth="827" pageHeight="1169" math="0" shadow="0">
      <root>
        <mxCell id="0" />
        <mxCell id="1" parent="0" />
        <mxCell id="Kq8y0riaq3eOxKgUJ4Hc-1" value="" style="rounded=1;whiteSpace=wrap;html=1;fillColor=none;dashed=1;strokeWidth=2;" parent="1" vertex="1">
          <mxGeometry x="233" y="190" width="527" height="210" as="geometry" />
        </mxCell>
        <mxCell id="Kq8y0riaq3eOxKgUJ4Hc-2" value="" style="edgeStyle=orthogonalEdgeStyle;rounded=0;orthogonalLoop=1;jettySize=auto;html=1;" parent="1" source="Kq8y0riaq3eOxKgUJ4Hc-3" target="Kq8y0riaq3eOxKgUJ4Hc-5" edge="1">
          <mxGeometry relative="1" as="geometry" />
        </mxCell>
        <mxCell id="Kq8y0riaq3eOxKgUJ4Hc-3" value="逻辑计划" style="rounded=1;whiteSpace=wrap;html=1;fillColor=none;fontFamily=阿里巴巴普惠体;fontSize=24;" parent="1" vertex="1">
          <mxGeometry x="250" y="270" width="130" height="60" as="geometry" />
        </mxCell>
        <mxCell id="Kq8y0riaq3eOxKgUJ4Hc-4" value="" style="edgeStyle=orthogonalEdgeStyle;rounded=0;orthogonalLoop=1;jettySize=auto;html=1;" parent="1" source="Kq8y0riaq3eOxKgUJ4Hc-5" target="Kq8y0riaq3eOxKgUJ4Hc-6" edge="1">
          <mxGeometry relative="1" as="geometry" />
        </mxCell>
        <mxCell id="Kq8y0riaq3eOxKgUJ4Hc-5" value="物理计划" style="rounded=1;whiteSpace=wrap;html=1;fillColor=none;fontFamily=阿里巴巴普惠体;fontSize=24;" parent="1" vertex="1">
          <mxGeometry x="440" y="270" width="120" height="60" as="geometry" />
        </mxCell>
        <mxCell id="Kq8y0riaq3eOxKgUJ4Hc-6" value="计划分片" style="rounded=1;whiteSpace=wrap;html=1;fillColor=none;fontFamily=阿里巴巴普惠体;fontSize=24;" parent="1" vertex="1">
          <mxGeometry x="620" y="270" width="120" height="60" as="geometry" />
        </mxCell>
        <mxCell id="Kq8y0riaq3eOxKgUJ4Hc-7" value="&lt;font style=&quot;font-size: 24px;&quot; face=&quot;阿里巴巴普惠体&quot;&gt;新查询优化器&lt;/font&gt;" style="text;html=1;align=center;verticalAlign=middle;whiteSpace=wrap;rounded=0;" parent="1" vertex="1">
          <mxGeometry x="420" y="200" width="170" height="30" as="geometry" />
        </mxCell>
        <mxCell id="Kq8y0riaq3eOxKgUJ4Hc-8" value="" style="edgeStyle=orthogonalEdgeStyle;rounded=0;orthogonalLoop=1;jettySize=auto;html=1;" parent="1" source="Kq8y0riaq3eOxKgUJ4Hc-9" target="Kq8y0riaq3eOxKgUJ4Hc-3" edge="1">
          <mxGeometry relative="1" as="geometry" />
        </mxCell>
        <mxCell id="Kq8y0riaq3eOxKgUJ4Hc-9" value="&lt;font face=&quot;阿里巴巴普惠体&quot; style=&quot;font-size: 24px;&quot;&gt;嵌入用户自定义函数的查询语句&lt;/font&gt;" style="rounded=1;whiteSpace=wrap;html=1;fillColor=none;align=left;" parent="1" vertex="1">
          <mxGeometry x="20" y="255" width="160" height="90" as="geometry" />
        </mxCell>
        <mxCell id="Kq8y0riaq3eOxKgUJ4Hc-10" value="&lt;font face=&quot;阿里巴巴普惠体&quot; style=&quot;font-size: 18px;&quot;&gt;优化用户自定义函数的执行逻辑&lt;/font&gt;" style="text;html=1;align=left;verticalAlign=middle;whiteSpace=wrap;rounded=0;" parent="1" vertex="1">
          <mxGeometry x="350" y="345" width="130" height="30" as="geometry" />
        </mxCell>
        <mxCell id="Kq8y0riaq3eOxKgUJ4Hc-11" value="&lt;font style=&quot;font-size: 18px;&quot; face=&quot;阿里巴巴普惠体&quot;&gt;图 3：查询计划的生成过程&lt;/font&gt;" style="text;html=1;align=center;verticalAlign=middle;whiteSpace=wrap;rounded=0;" parent="1" vertex="1">
          <mxGeometry x="280" y="430" width="280" height="30" as="geometry" />
        </mxCell>
      </root>
    </mxGraphModel>
  </diagram>
</mxfile>
